# xmcd
#
# Track frame offsets: 
#        150
#        25044
#        46134
#        67171
#        85852
#        105097
#        130408
#        155178
#        173052
#        195319
#        213640
#        228914
#
# Disc length: 3197 seconds
#
# Revision: 1
# Processed by: cddbd v1.5.2PL0 Copyright (c) Steve Scherf et al.
# Submitted via: ExactAudioCopy v0.99pb4
#
DISCID=990c7b0c
DTITLE=Various Artist - Cafe Lounge Royal Iced Raspberry Tea 
DYEAR=2006
DGENRE=Bossa Nova
TTITLE0=John Beltran - Dia Brioso
TTITLE1=Liliana Gimenez - Bossa De Botinho
TTITLE2=Marco Di Marco feat. Nathan Haines - Take Off 'NICOLA CONTE' (
TTITLE2=Campi's Idea Version)
TTITLE3=Os Morcegos - Taboo
TTITLE4=Nylon - Clubossa
TTITLE5=Riovolt - E'Dificil Esperar (Rio Version)
TTITLE6=The Slenders - Ibiza Breezing
TTITLE7=Phonorama - La Dattilografa
TTITLE8=Gira Mundo feat. Saigenji - Que Venga El Alba
TTITLE9=Gira Mundo feat. Toyono - Na Esperance Estacad
TTITLE10=Helena Mendes - Carrapateira
TTITLE11=Mossuto - Cioccolatino
EXTD=YEAR: 2006
EXTT0=
EXTT1=
EXTT2=
EXTT3=
EXTT4=
EXTT5=
EXTT6=
EXTT7=
EXTT8=
EXTT9=
EXTT10=
EXTT11=
PLAYORDER=
